# xmcd
#
# Track frame offsets:
#	150
#	13764
#	27350
#	41005
#	51924
#	67699
#	79682
#	90375
#	100737
#	118999
#	133846
#	146036
#	160120
#	172014
#	188102
#	200153
#	214373
#
# Disc length: 3011 seconds
#
# Revision: 2
# Processed by: cddbd v1.5.2PL0 Copyright (c) Steve Scherf et al.
# Submitted via: audiograbber 1.83.01
#
DISCID=f50bc111
DTITLE=Various Artist - The Legends Of The 60's And 70's (0120) CD 2
DYEAR=1997
DGENRE=Oldies
TTITLE0=Jerry Lee Lewis - Mona Lisa
TTITLE1=Chuck Berry - Memphis Tennessee
TTITLE2=Brenda Lee - Your mama don't dance
TTITLE3=Louis Jordan - Choo choo cu boogie
TTITLE4=Everly Brothers - Good golly Miss Molly
TTITLE5=Lloyd Price - Personality
TTITLE6=Frankie Ford - Sea cruise
TTITLE7=The Royal Teens - Shorts shorts
TTITLE8=Jerry Lee Lewis - Just because
TTITLE9=The Drifters - When my little girl is smiling
TTITLE10=Bobby Darin - Plain Jane
TTITLE11=Chuck Berry - Nadine
TTITLE12=The Coasters - Poison ivy
TTITLE13=Jerry Lee Lewis - I don't want to be lonely tonite
TTITLE14=Chubby Checker - The twist
TTITLE15=Everly Brothers - Temptation
TTITLE16=The Platters - Remember when
EXTD=
EXTT0=
EXTT1=
EXTT2=
EXTT3=
EXTT4=
EXTT5=
EXTT6=
EXTT7=
EXTT8=
EXTT9=
EXTT10=
EXTT11=
EXTT12=
EXTT13=
EXTT14=
EXTT15=
EXTT16=
PLAYORDER=
